{
	"patcher" : 	{
		"fileversion" : 1,
		"appversion" : 		{
			"major" : 8,
			"minor" : 6,
			"revision" : 1,
			"architecture" : "x64",
			"modernui" : 1
		}
,
		"classnamespace" : "box",
		"rect" : [ 283.0, -1004.0, 1488.0, 1005.0 ],
		"bglocked" : 0,
		"openinpresentation" : 1,
		"default_fontsize" : 12.0,
		"default_fontface" : 0,
		"default_fontname" : "Arial",
		"gridonopen" : 1,
		"gridsize" : [ 15.0, 15.0 ],
		"gridsnaponopen" : 1,
		"objectsnaponopen" : 1,
		"statusbarvisible" : 2,
		"toolbarvisible" : 1,
		"lefttoolbarpinned" : 0,
		"toptoolbarpinned" : 0,
		"righttoolbarpinned" : 0,
		"bottomtoolbarpinned" : 0,
		"toolbars_unpinned_last_save" : 12,
		"tallnewobj" : 0,
		"boxanimatetime" : 200,
		"enablehscroll" : 1,
		"enablevscroll" : 1,
		"devicewidth" : 0.0,
		"description" : "",
		"digest" : "",
		"tags" : "",
		"style" : "",
		"subpatcher_template" : "",
		"assistshowspatchername" : 0,
		"boxes" : [ 			{
				"box" : 				{
					"id" : "obj-89",
					"maxclass" : "newobj",
					"numinlets" : 2,
					"numoutlets" : 2,
					"outlettype" : [ "", "" ],
					"patching_rect" : [ 308.0, 69.45454740524292, 66.0, 22.0 ],
					"text" : "route page"
				}

			}
, 			{
				"box" : 				{
					"id" : "obj-88",
					"maxclass" : "message",
					"numinlets" : 2,
					"numoutlets" : 1,
					"outlettype" : [ "" ],
					"patching_rect" : [ 446.666679978370667, 107.878791093826294, 29.5, 22.0 ],
					"text" : "0"
				}

			}
, 			{
				"box" : 				{
					"comment" : "",
					"id" : "obj-69",
					"index" : 0,
					"maxclass" : "inlet",
					"numinlets" : 0,
					"numoutlets" : 1,
					"outlettype" : [ "" ],
					"patching_rect" : [ 600.000017881393433, 93.939396739006042, 30.0, 30.0 ]
				}

			}
, 			{
				"box" : 				{
					"id" : "obj-68",
					"maxclass" : "newobj",
					"numinlets" : 1,
					"numoutlets" : 1,
					"outlettype" : [ "" ],
					"patching_rect" : [ 413.333345651626587, 143.636367917060852, 89.0, 22.0 ],
					"text" : "loadmess set 0"
				}

			}
, 			{
				"box" : 				{
					"id" : "obj-66",
					"maxclass" : "message",
					"numinlets" : 2,
					"numoutlets" : 1,
					"outlettype" : [ "" ],
					"patching_rect" : [ 315.0, 164.5, 52.0, 22.0 ],
					"text" : "page $1"
				}

			}
, 			{
				"box" : 				{
					"id" : "obj-58",
					"maxclass" : "toggle",
					"numinlets" : 1,
					"numoutlets" : 1,
					"outlettype" : [ "int" ],
					"parameter_enable" : 0,
					"patching_rect" : [ 315.0, 136.440671622753143, 24.0, 24.0 ]
				}

			}
, 			{
				"box" : 				{
					"color" : [ 0.886274509803922, 0.835294117647059, 0.525490196078431, 1.0 ],
					"fontsize" : 12.0,
					"id" : "obj-1",
					"maxclass" : "newobj",
					"numinlets" : 1,
					"numoutlets" : 0,
					"patching_rect" : [ 307.0, 203.636369705200195, 68.0, 22.0 ],
					"presentation" : 1,
					"presentation_rect" : [ 722.033864736557007, 75.423725306987762, 127.999999999999773, 22.0 ],
					"text" : "s #0-InMes"
				}

			}
, 			{
				"box" : 				{
					"fontsize" : 4.0,
					"id" : "obj-2",
					"maxclass" : "newobj",
					"numinlets" : 2,
					"numoutlets" : 2,
					"outlettype" : [ "", "" ],
					"patching_rect" : [ 607.69227147102356, 389.743566513061523, 31.185186326503754, 13.0 ],
					"presentation" : 1,
					"presentation_rect" : [ 967.795180678367615, 290.4271402507228, 31.185186326503754, 13.0 ],
					"text" : "route page"
				}

			}
, 			{
				"box" : 				{
					"fontsize" : 19.833565464807691,
					"id" : "obj-209",
					"linecount" : 2,
					"maxclass" : "comment",
					"numinlets" : 1,
					"numoutlets" : 0,
					"patching_rect" : [ 670.512780547142029, 442.307665944099426, 64.926828861236572, 52.0 ],
					"presentation" : 1,
					"presentation_linecount" : 2,
					"presentation_rect" : [ 1030.795180678367615, 343.4271402507228, 64.926828861236572, 52.0 ],
					"text" : "page tween"
				}

			}
, 			{
				"box" : 				{
					"color" : [ 0.886274509803922, 0.835294117647059, 0.525490196078431, 1.0 ],
					"fontsize" : 12.0,
					"id" : "obj-106",
					"maxclass" : "newobj",
					"numinlets" : 0,
					"numoutlets" : 1,
					"outlettype" : [ "" ],
					"patching_rect" : [ 607.69227147102356, 332.051262259483337, 127.999999999999773, 22.0 ],
					"presentation" : 1,
					"presentation_rect" : [ 967.795180678367615, 262.4271402507228, 127.999999999999773, 22.0 ],
					"text" : "r #0-InMes"
				}

			}
, 			{
				"box" : 				{
					"fontsize" : 4.169453971834767,
					"id" : "obj-97",
					"maxclass" : "message",
					"numinlets" : 2,
					"numoutlets" : 1,
					"outlettype" : [ "" ],
					"patching_rect" : [ 643.589705228805542, 453.846126794815063, 29.5, 13.0 ],
					"presentation" : 1,
					"presentation_rect" : [ 1003.795180678367615, 354.4271402507228, 29.5, 13.0 ],
					"text" : "$1 200"
				}

			}
, 			{
				"box" : 				{
					"fontsize" : 4.0,
					"id" : "obj-6",
					"maxclass" : "newobj",
					"numinlets" : 3,
					"numoutlets" : 2,
					"outlettype" : [ "", "bang" ],
					"patching_rect" : [ 643.589705228805542, 471.794843673706055, 24.810440361499786, 13.0 ],
					"presentation" : 1,
					"presentation_rect" : [ 1003.795180678367615, 372.4271402507228, 24.810440361499786, 13.0 ],
					"text" : "line 0."
				}

			}
, 			{
				"box" : 				{
					"fontsize" : 4.0,
					"id" : "obj-96",
					"maxclass" : "newobj",
					"numinlets" : 2,
					"numoutlets" : 1,
					"outlettype" : [ "" ],
					"patching_rect" : [ 606.410220265388489, 512.82048225402832, 55.749943141368703, 13.0 ],
					"presentation" : 1,
					"presentation_rect" : [ 967.045237536998911, 414.76049442581359, 55.749943141368703, 13.0 ],
					"text" : "pak f f"
				}

			}
, 			{
				"box" : 				{
					"fontsize" : 4.0,
					"id" : "obj-83",
					"maxclass" : "message",
					"numinlets" : 2,
					"numoutlets" : 1,
					"outlettype" : [ "" ],
					"patching_rect" : [ 607.69227147102356, 453.846126794815063, 29.5, 13.0 ],
					"presentation" : 1,
					"presentation_rect" : [ 967.795180678367615, 354.4271402507228, 29.5, 13.0 ],
					"text" : "$1 200"
				}

			}
, 			{
				"box" : 				{
					"fontsize" : 4.0,
					"id" : "obj-32",
					"maxclass" : "newobj",
					"numinlets" : 1,
					"numoutlets" : 2,
					"outlettype" : [ "float", "float" ],
					"patching_rect" : [ 607.69227147102356, 435.897409915924072, 55.749943141368703, 13.0 ],
					"presentation" : 1,
					"presentation_rect" : [ 967.795180678367615, 337.4271402507228, 55.749943141368703, 13.0 ],
					"text" : "unpack f f"
				}

			}
, 			{
				"box" : 				{
					"fontsize" : 4.0,
					"id" : "obj-75",
					"maxclass" : "newobj",
					"numinlets" : 3,
					"numoutlets" : 2,
					"outlettype" : [ "", "bang" ],
					"patching_rect" : [ 607.69227147102356, 471.794843673706055, 25.0, 13.0 ],
					"presentation" : 1,
					"presentation_rect" : [ 967.795180678367615, 372.4271402507228, 25.0, 13.0 ],
					"text" : "line 0. 40"
				}

			}
, 			{
				"box" : 				{
					"fontsize" : 13.80855504839222,
					"id" : "obj-38",
					"maxclass" : "message",
					"numinlets" : 2,
					"numoutlets" : 1,
					"outlettype" : [ "" ],
					"patching_rect" : [ 607.69227147102356, 539.743557572364807, 127.751122223991615, 24.0 ],
					"presentation" : 1,
					"presentation_rect" : [ 967.795180678367615, 440.093828514139091, 127.751122223991615, 24.0 ],
					"text" : "offset $1 $2"
				}

			}
, 			{
				"box" : 				{
					"fontsize" : 14.652108370537919,
					"id" : "obj-41",
					"maxclass" : "newobj",
					"numinlets" : 1,
					"numoutlets" : 2,
					"outlettype" : [ "", "" ],
					"patching_rect" : [ 607.69227147102356, 567.948684096336365, 128.144767514751493, 25.0 ],
					"presentation" : 1,
					"presentation_rect" : [ 967.795180678367615, 469.09382937840644, 128.144767514751493, 25.0 ],
					"save" : [ "#N", "thispatcher", ";", "#Q", "end", ";" ],
					"text" : "thispatcher"
				}

			}
, 			{
				"box" : 				{
					"fontsize" : 4.0,
					"id" : "obj-48",
					"maxclass" : "newobj",
					"numinlets" : 2,
					"numoutlets" : 1,
					"outlettype" : [ "bang" ],
					"patching_rect" : [ 676.923036575317383, 389.743566513061523, 29.5, 13.0 ],
					"presentation" : 1,
					"presentation_rect" : [ 1036.795180678367615, 290.4271402507228, 29.5, 13.0 ],
					"text" : "del 100"
				}

			}
, 			{
				"box" : 				{
					"fontsize" : 4.0,
					"id" : "obj-49",
					"maxclass" : "newobj",
					"numinlets" : 1,
					"numoutlets" : 1,
					"outlettype" : [ "bang" ],
					"patching_rect" : [ 708.974316716194153, 389.743566513061523, 26.29629772901535, 13.0 ],
					"presentation" : 1,
					"presentation_rect" : [ 1068.795180678367615, 290.4271402507228, 26.29629772901535, 13.0 ],
					"text" : "loadbang"
				}

			}
, 			{
				"box" : 				{
					"fontsize" : 4.0,
					"id" : "obj-50",
					"maxclass" : "message",
					"numinlets" : 2,
					"numoutlets" : 1,
					"outlettype" : [ "" ],
					"patching_rect" : [ 647.435858845710754, 389.743566513061523, 26.29629772901535, 13.0 ],
					"presentation" : 1,
					"presentation_rect" : [ 1007.795180678367615, 290.4271402507228, 26.29629772901535, 13.0 ],
					"text" : "compile"
				}

			}
, 			{
				"box" : 				{
					"fontsize" : 12.0,
					"id" : "obj-54",
					"maxclass" : "newobj",
					"numinlets" : 1,
					"numoutlets" : 1,
					"outlettype" : [ "" ],
					"patching_rect" : [ 607.69227147102356, 406.410232186317444, 128.0, 22.0 ],
					"presentation" : 1,
					"presentation_rect" : [ 967.795180678367615, 307.4271402507228, 128.0, 22.0 ],
					"saved_object_attributes" : 					{
						"filename" : "patOffsetManager.js",
						"parameter_enable" : 0
					}
,
					"text" : "js patOffsetManager.js",
					"textcolor" : [ 0.996078431372549, 0.501960784313725, 0.262745098039216, 1.0 ]
				}

			}
, 			{
				"box" : 				{
					"comment" : "",
					"id" : "obj-55",
					"index" : 0,
					"maxclass" : "inlet",
					"numinlets" : 0,
					"numoutlets" : 1,
					"outlettype" : [ "" ],
					"patching_rect" : [ 252.121219635009766, 65.45454740524292, 30.0, 30.0 ]
				}

			}
, 			{
				"box" : 				{
					"id" : "obj-47",
					"maxclass" : "newobj",
					"numinlets" : 1,
					"numoutlets" : 1,
					"outlettype" : [ "bang" ],
					"patching_rect" : [ 35.0, 777.0, 58.0, 22.0 ],
					"text" : "loadbang"
				}

			}
, 			{
				"box" : 				{
					"id" : "obj-46",
					"maxclass" : "newobj",
					"numinlets" : 1,
					"numoutlets" : 1,
					"outlettype" : [ "bang" ],
					"patching_rect" : [ 36.0, 618.0, 58.0, 22.0 ],
					"text" : "loadbang"
				}

			}
, 			{
				"box" : 				{
					"fontname" : "Bahnschrift Bold",
					"id" : "obj-44",
					"maxclass" : "comment",
					"numinlets" : 1,
					"numoutlets" : 0,
					"patching_rect" : [ 127.0, 707.0, 151.0, 21.0 ],
					"presentation" : 1,
					"presentation_rect" : [ 216.969703435897827, 6.591463565826416, 92.0, 21.0 ],
					"text" : "signal vector",
					"textcolor" : [ 1.0, 1.0, 1.0, 1.0 ]
				}

			}
, 			{
				"box" : 				{
					"fontname" : "Bahnschrift Bold",
					"id" : "obj-43",
					"maxclass" : "comment",
					"numinlets" : 1,
					"numoutlets" : 0,
					"patching_rect" : [ 132.0, 803.0, 157.0, 21.0 ],
					"presentation" : 1,
					"presentation_rect" : [ 216.969703435897827, 33.433851301670074, 116.0, 21.0 ],
					"text" : "in-out vector",
					"textcolor" : [ 1.0, 1.0, 1.0, 1.0 ]
				}

			}
, 			{
				"box" : 				{
					"fontname" : "Lato Bold",
					"id" : "obj-34",
					"items" : 512,
					"maxclass" : "umenu",
					"numinlets" : 1,
					"numoutlets" : 3,
					"outlettype" : [ "int", "", "" ],
					"parameter_enable" : 0,
					"patching_rect" : [ 35.0, 859.0, 78.0, 23.0 ],
					"presentation" : 1,
					"presentation_rect" : [ 295.151523947715759, 32.933851301670074, 78.0, 23.0 ]
				}

			}
, 			{
				"box" : 				{
					"fontname" : "Arial",
					"fontsize" : 13.0,
					"id" : "obj-36",
					"maxclass" : "newobj",
					"numinlets" : 2,
					"numoutlets" : 2,
					"outlettype" : [ "", "int" ],
					"patching_rect" : [ 35.0, 806.0, 87.0, 23.0 ],
					"text" : "adstatus iovs"
				}

			}
, 			{
				"box" : 				{
					"fontname" : "Lato Bold",
					"id" : "obj-40",
					"items" : [ 1, ",", 2, ",", 4, ",", 8, ",", 16, ",", 32, ",", 64, ",", 128, ",", 256, ",", 512 ],
					"maxclass" : "umenu",
					"numinlets" : 1,
					"numoutlets" : 3,
					"outlettype" : [ "int", "", "" ],
					"parameter_enable" : 0,
					"patching_rect" : [ 36.0, 706.0, 78.0, 23.0 ],
					"presentation" : 1,
					"presentation_rect" : [ 295.151523947715759, 6.091463565826416, 78.0, 23.0 ]
				}

			}
, 			{
				"box" : 				{
					"fontname" : "Arial",
					"fontsize" : 13.0,
					"id" : "obj-42",
					"maxclass" : "newobj",
					"numinlets" : 2,
					"numoutlets" : 2,
					"outlettype" : [ "", "int" ],
					"patching_rect" : [ 36.0, 652.0, 93.0, 23.0 ],
					"text" : "adstatus sigvs"
				}

			}
, 			{
				"box" : 				{
					"fontname" : "Bahnschrift Bold",
					"id" : "obj-28",
					"maxclass" : "comment",
					"numinlets" : 1,
					"numoutlets" : 0,
					"patching_rect" : [ 132.0, 568.0, 74.0, 21.0 ],
					"presentation" : 1,
					"presentation_rect" : [ 6.0, 33.433851301670074, 74.0, 21.0 ],
					"text" : "sample rate",
					"textcolor" : [ 1.0, 1.0, 1.0, 1.0 ]
				}

			}
, 			{
				"box" : 				{
					"id" : "obj-27",
					"maxclass" : "newobj",
					"numinlets" : 1,
					"numoutlets" : 1,
					"outlettype" : [ "bang" ],
					"patching_rect" : [ 36.0, 477.0, 58.0, 22.0 ],
					"text" : "loadbang"
				}

			}
, 			{
				"box" : 				{
					"fontname" : "Lato Bold",
					"id" : "obj-45",
					"items" : [ 44100, ",", 48000 ],
					"maxclass" : "umenu",
					"numinlets" : 1,
					"numoutlets" : 3,
					"outlettype" : [ "int", "", "" ],
					"parameter_enable" : 0,
					"patching_rect" : [ 36.0, 567.0, 78.0, 23.0 ],
					"presentation" : 1,
					"presentation_rect" : [ 84.048782348632812, 32.933851301670074, 117.012196063995361, 23.0 ]
				}

			}
, 			{
				"box" : 				{
					"fontname" : "Arial",
					"fontsize" : 13.0,
					"id" : "obj-25",
					"maxclass" : "newobj",
					"numinlets" : 2,
					"numoutlets" : 2,
					"outlettype" : [ "", "int" ],
					"patching_rect" : [ 36.0, 513.0, 110.0, 23.0 ],
					"text" : "adstatus sr"
				}

			}
, 			{
				"box" : 				{
					"fontname" : "Bahnschrift Bold",
					"id" : "obj-24",
					"maxclass" : "comment",
					"numinlets" : 1,
					"numoutlets" : 0,
					"patching_rect" : [ 153.0, 332.0, 68.0, 21.0 ],
					"presentation" : 1,
					"presentation_rect" : [ 392.1212238073349, 6.591463565826416, 35.0, 21.0 ],
					"text" : "out 1",
					"textcolor" : [ 1.0, 1.0, 1.0, 1.0 ]
				}

			}
, 			{
				"box" : 				{
					"fontname" : "Bahnschrift Bold",
					"id" : "obj-21",
					"maxclass" : "comment",
					"numinlets" : 1,
					"numoutlets" : 0,
					"patching_rect" : [ 153.0, 413.0, 72.0, 21.0 ],
					"presentation" : 1,
					"presentation_rect" : [ 390.909102559089661, 33.433851301670074, 37.0, 21.0 ],
					"text" : "out 2",
					"textcolor" : [ 1.0, 1.0, 1.0, 1.0 ]
				}

			}
, 			{
				"box" : 				{
					"id" : "obj-15",
					"maxclass" : "newobj",
					"numinlets" : 1,
					"numoutlets" : 1,
					"outlettype" : [ "bang" ],
					"patching_rect" : [ 40.0, 386.0, 58.0, 22.0 ],
					"text" : "loadbang"
				}

			}
, 			{
				"box" : 				{
					"id" : "obj-14",
					"maxclass" : "newobj",
					"numinlets" : 1,
					"numoutlets" : 1,
					"outlettype" : [ "bang" ],
					"patching_rect" : [ 39.0, 305.0, 58.0, 22.0 ],
					"text" : "loadbang"
				}

			}
, 			{
				"box" : 				{
					"id" : "obj-13",
					"maxclass" : "newobj",
					"numinlets" : 1,
					"numoutlets" : 1,
					"outlettype" : [ "bang" ],
					"patching_rect" : [ 36.0, 188.0, 58.0, 22.0 ],
					"text" : "loadbang"
				}

			}
, 			{
				"box" : 				{
					"fontname" : "Lato Bold",
					"id" : "obj-30",
					"items" : [ "None", ",", "ad_asio", "ASIO4ALL v2", ",", "ad_asio", "Generic Low Latency ASIO Driver", ",", "ad_asio", "Realtek ASIO", ",", "ad_asio", "ZOOM H and F Series ASIO", ",", "ad_asio", "ZOOM H and F Series Async ASIO", ",", "ad_directsound", "", ",", "ad_mme", "", ",", "NonRealTime", ",", "ad_portaudio", "MME", ",", "ad_portaudio", "Windows DirectSound", ",", "ad_portaudio", "Windows WASAPI", ",", "ad_portaudio", "Windows WDM-KS" ],
					"maxclass" : "umenu",
					"numinlets" : 1,
					"numoutlets" : 3,
					"outlettype" : [ "int", "", "" ],
					"parameter_enable" : 0,
					"patching_rect" : [ 36.0, 266.0, 194.0, 23.0 ],
					"presentation" : 1,
					"presentation_rect" : [ 83.5, 6.091463565826416, 117.560978412628174, 23.0 ]
				}

			}
, 			{
				"box" : 				{
					"fontname" : "Arial",
					"fontsize" : 13.0,
					"id" : "obj-12",
					"maxclass" : "newobj",
					"numinlets" : 2,
					"numoutlets" : 2,
					"outlettype" : [ "", "int" ],
					"patching_rect" : [ 36.0, 241.0, 96.0, 23.0 ],
					"text" : "adstatus driver"
				}

			}
, 			{
				"box" : 				{
					"fontname" : "Lato Bold",
					"id" : "obj-8",
					"items" : [ "Off", ",", 1, "ZOOM H and F Series A... Out 01", ",", 2, "ZOOM H and F Series A... Out 02" ],
					"maxclass" : "umenu",
					"numinlets" : 1,
					"numoutlets" : 3,
					"outlettype" : [ "int", "", "" ],
					"parameter_enable" : 0,
					"patching_rect" : [ 40.0, 436.0, 100.0, 23.0 ],
					"presentation" : 1,
					"presentation_rect" : [ 439.393952488899231, 32.933851301670074, 117.073173522949219, 23.0 ]
				}

			}
, 			{
				"box" : 				{
					"fontname" : "Arial",
					"fontsize" : 13.0,
					"id" : "obj-10",
					"maxclass" : "newobj",
					"numinlets" : 2,
					"numoutlets" : 2,
					"outlettype" : [ "", "int" ],
					"patching_rect" : [ 40.0, 412.0, 108.0, 23.0 ],
					"text" : "adstatus output 2"
				}

			}
, 			{
				"box" : 				{
					"fontname" : "Lato Bold",
					"id" : "obj-18",
					"items" : [ "Off", ",", 1, "ZOOM H and F Series A... Out 01", ",", 2, "ZOOM H and F Series A... Out 02" ],
					"maxclass" : "umenu",
					"numinlets" : 1,
					"numoutlets" : 3,
					"outlettype" : [ "int", "", "" ],
					"parameter_enable" : 0,
					"patching_rect" : [ 39.0, 355.0, 100.0, 23.0 ],
					"presentation" : 1,
					"presentation_rect" : [ 439.393952488899231, 6.091463565826416, 117.073173522949219, 23.0 ]
				}

			}
, 			{
				"box" : 				{
					"fontname" : "Arial",
					"fontsize" : 13.0,
					"id" : "obj-20",
					"maxclass" : "newobj",
					"numinlets" : 2,
					"numoutlets" : 2,
					"outlettype" : [ "", "int" ],
					"patching_rect" : [ 39.0, 331.0, 111.0, 23.0 ],
					"text" : "adstatus output 1"
				}

			}
, 			{
				"box" : 				{
					"fontname" : "Bahnschrift Bold",
					"id" : "obj-33",
					"maxclass" : "comment",
					"numinlets" : 1,
					"numoutlets" : 0,
					"patching_rect" : [ 139.0, 242.0, 80.0, 21.0 ],
					"presentation" : 1,
					"presentation_rect" : [ 6.0, 6.591463565826416, 80.0, 21.0 ],
					"text" : "audio driver",
					"textcolor" : [ 1.0, 1.0, 1.0, 1.0 ]
				}

			}
, 			{
				"box" : 				{
					"angle" : 270.0,
					"background" : 1,
					"bgcolor" : [ 0.643137254901961, 0.643137254901961, 0.643137254901961, 0.29 ],
					"border" : 1,
					"bordercolor" : [ 0.180392156862745, 0.180392156862745, 0.180392156862745, 0.0 ],
					"id" : "obj-158",
					"maxclass" : "panel",
					"mode" : 0,
					"numinlets" : 1,
					"numoutlets" : 0,
					"patching_rect" : [ 506.410226225852966, 519.230738282203674, 89.658333999999968, 83.0 ],
					"presentation" : 1,
					"presentation_rect" : [ -0.60606062412262, 0.60606062412262, 576.703635334968567, 63.030304908752441 ],
					"proportion" : 0.5,
					"rounded" : 0,
					"varname" : "panel[1]"
				}

			}
, 			{
				"box" : 				{
					"angle" : 270.0,
					"background" : 1,
					"bgcolor" : [ 0.76078431372549, 0.76078431372549, 0.76078431372549, 0.0 ],
					"border" : 1,
					"bordercolor" : [ 0.180392156862745, 0.180392156862745, 0.180392156862745, 0.0 ],
					"id" : "obj-149",
					"maxclass" : "panel",
					"mode" : 0,
					"numinlets" : 1,
					"numoutlets" : 0,
					"patching_rect" : [ 406.410232186317444, 519.230738282203674, 89.658334000000025, 83.0 ],
					"presentation" : 1,
					"presentation_rect" : [ -0.60606062412262, 65.426581382751465, 576.703635334968567, 62.424244284629822 ],
					"proportion" : 0.5,
					"rounded" : 0,
					"varname" : "panel[0]"
				}

			}
 ],
		"lines" : [ 			{
				"patchline" : 				{
					"destination" : [ "obj-8", 0 ],
					"source" : [ "obj-10", 0 ]
				}

			}
, 			{
				"patchline" : 				{
					"destination" : [ "obj-2", 0 ],
					"source" : [ "obj-106", 0 ]
				}

			}
, 			{
				"patchline" : 				{
					"destination" : [ "obj-30", 0 ],
					"source" : [ "obj-12", 0 ]
				}

			}
, 			{
				"patchline" : 				{
					"destination" : [ "obj-12", 0 ],
					"source" : [ "obj-13", 0 ]
				}

			}
, 			{
				"patchline" : 				{
					"destination" : [ "obj-20", 0 ],
					"source" : [ "obj-14", 0 ]
				}

			}
, 			{
				"patchline" : 				{
					"destination" : [ "obj-10", 0 ],
					"source" : [ "obj-15", 0 ]
				}

			}
, 			{
				"patchline" : 				{
					"destination" : [ "obj-20", 0 ],
					"midpoints" : [ 48.5, 381.175178531738311, 25.186445884719888, 381.175178531738311, 25.186445884719888, 326.910590531738251, 48.5, 326.910590531738251 ],
					"source" : [ "obj-18", 0 ]
				}

			}
, 			{
				"patchline" : 				{
					"destination" : [ "obj-54", 0 ],
					"source" : [ "obj-2", 0 ]
				}

			}
, 			{
				"patchline" : 				{
					"destination" : [ "obj-18", 0 ],
					"source" : [ "obj-20", 0 ]
				}

			}
, 			{
				"patchline" : 				{
					"destination" : [ "obj-45", 0 ],
					"source" : [ "obj-25", 0 ]
				}

			}
, 			{
				"patchline" : 				{
					"destination" : [ "obj-25", 0 ],
					"source" : [ "obj-27", 0 ]
				}

			}
, 			{
				"patchline" : 				{
					"destination" : [ "obj-12", 0 ],
					"midpoints" : [ 45.5, 298.651380091434476, 25.739636533275643, 298.651380091434476, 25.739636533275643, 236.541303091434486, 45.5, 236.541303091434486 ],
					"source" : [ "obj-30", 0 ]
				}

			}
, 			{
				"patchline" : 				{
					"destination" : [ "obj-83", 0 ],
					"source" : [ "obj-32", 0 ]
				}

			}
, 			{
				"patchline" : 				{
					"destination" : [ "obj-97", 0 ],
					"source" : [ "obj-32", 1 ]
				}

			}
, 			{
				"patchline" : 				{
					"destination" : [ "obj-36", 0 ],
					"midpoints" : [ 44.5, 897.667261085880227, 23.548777863361352, 897.667261085880227, 23.548777863361352, 794.258814085880317, 44.5, 794.258814085880317 ],
					"source" : [ "obj-34", 0 ]
				}

			}
, 			{
				"patchline" : 				{
					"destination" : [ "obj-34", 0 ],
					"source" : [ "obj-36", 0 ]
				}

			}
, 			{
				"patchline" : 				{
					"destination" : [ "obj-41", 0 ],
					"source" : [ "obj-38", 0 ]
				}

			}
, 			{
				"patchline" : 				{
					"destination" : [ "obj-42", 0 ],
					"midpoints" : [ 45.5, 745.719294085880279, 22.39255786336139, 745.719294085880279, 22.39255786336139, 647.166315085880342, 45.5, 647.166315085880342 ],
					"source" : [ "obj-40", 0 ]
				}

			}
, 			{
				"patchline" : 				{
					"destination" : [ "obj-40", 0 ],
					"source" : [ "obj-42", 0 ]
				}

			}
, 			{
				"patchline" : 				{
					"destination" : [ "obj-25", 0 ],
					"midpoints" : [ 45.5, 602.111278744873061, 21.95669044016654, 602.111278744873061, 21.95669044016654, 510.702815744873078, 45.5, 510.702815744873078 ],
					"source" : [ "obj-45", 0 ]
				}

			}
, 			{
				"patchline" : 				{
					"destination" : [ "obj-42", 0 ],
					"source" : [ "obj-46", 0 ]
				}

			}
, 			{
				"patchline" : 				{
					"destination" : [ "obj-36", 0 ],
					"source" : [ "obj-47", 0 ]
				}

			}
, 			{
				"patchline" : 				{
					"destination" : [ "obj-50", 0 ],
					"source" : [ "obj-48", 0 ]
				}

			}
, 			{
				"patchline" : 				{
					"destination" : [ "obj-48", 0 ],
					"source" : [ "obj-49", 0 ]
				}

			}
, 			{
				"patchline" : 				{
					"destination" : [ "obj-54", 0 ],
					"source" : [ "obj-50", 0 ]
				}

			}
, 			{
				"patchline" : 				{
					"destination" : [ "obj-32", 0 ],
					"source" : [ "obj-54", 0 ]
				}

			}
, 			{
				"patchline" : 				{
					"destination" : [ "obj-89", 0 ],
					"source" : [ "obj-55", 0 ]
				}

			}
, 			{
				"patchline" : 				{
					"destination" : [ "obj-66", 0 ],
					"source" : [ "obj-58", 0 ]
				}

			}
, 			{
				"patchline" : 				{
					"destination" : [ "obj-96", 1 ],
					"source" : [ "obj-6", 0 ]
				}

			}
, 			{
				"patchline" : 				{
					"destination" : [ "obj-1", 0 ],
					"source" : [ "obj-66", 0 ]
				}

			}
, 			{
				"patchline" : 				{
					"destination" : [ "obj-58", 0 ],
					"source" : [ "obj-68", 0 ]
				}

			}
, 			{
				"patchline" : 				{
					"destination" : [ "obj-96", 0 ],
					"source" : [ "obj-75", 0 ]
				}

			}
, 			{
				"patchline" : 				{
					"destination" : [ "obj-10", 0 ],
					"midpoints" : [ 49.5, 461.962412003608733, 26.686445884719888, 461.962412003608733, 26.686445884719888, 407.69782400360873, 49.5, 407.69782400360873 ],
					"source" : [ "obj-8", 0 ]
				}

			}
, 			{
				"patchline" : 				{
					"destination" : [ "obj-75", 0 ],
					"source" : [ "obj-83", 0 ]
				}

			}
, 			{
				"patchline" : 				{
					"destination" : [ "obj-58", 0 ],
					"source" : [ "obj-88", 0 ]
				}

			}
, 			{
				"patchline" : 				{
					"destination" : [ "obj-58", 0 ],
					"source" : [ "obj-89", 1 ]
				}

			}
, 			{
				"patchline" : 				{
					"destination" : [ "obj-88", 0 ],
					"source" : [ "obj-89", 0 ]
				}

			}
, 			{
				"patchline" : 				{
					"destination" : [ "obj-38", 0 ],
					"source" : [ "obj-96", 0 ]
				}

			}
, 			{
				"patchline" : 				{
					"destination" : [ "obj-6", 0 ],
					"source" : [ "obj-97", 0 ]
				}

			}
 ],
		"dependency_cache" : [ 			{
				"name" : "patOffsetManager.js",
				"bootpath" : "~/Documents/Max 8/Projects/ULA_NYMPHONIDAE_sequencer/code",
				"patcherrelativepath" : "../../../ULA_NYMPHONIDAE_sequencer/code",
				"type" : "TEXT",
				"implicit" : 1
			}
 ],
		"autosave" : 0,
		"bgcolor" : [ 0.980392156862745, 0.980392156862745, 0.980392156862745, 1.0 ]
	}

}
